Title                            : Robin Hood
Year                             : 2010
Genre                            : Action | Adventure | Drama
iMDB URL                         : http://www.imdb.com/title/tt0955308/

Complete name                    : Robin.Hood.2010.BRRIP.720P.H264-ZEKTORM.mp4
Format                           : MPEG-4
Format profile                   : Base Media
Codec ID                         : isom
File size                        : 2.44 GiB
Duration                         : 2h 35mn
Overall bit rate                 : 2244 Kbps
Subtitles                        : English, Spanish, French (Format: srt) / (Selectable)

Video
ID                               : 1
Format                           : AVC
Format/Info                      : Advanced Video Codec
Format profile                   : High@L4.0
Format settings, CABAC           : Yes
Format settings, ReFrames        : 4 frames
Codec ID                         : avc1
Codec ID/Info                    : Advanced Video Coding
Duration                         : 2h 35mn
Bit rate mode                    : Variable
Bit rate                         : 1924 Kbps
Width                            : 1280 pixels
Height                           : 528 pixels
Display aspect ratio             : 2.424
Frame rate mode                  : Constant
Frame rate                       : 23.976 fps
Resolution                       : 24 bits
Colorimetry                      : 4:2:0
Scan type                        : Progressive
Bits/(Pixel*Frame)               : 0.119
Stream size                      : 2.09 GiB (86%)
Title                            : Video
Writing library                  : x264

Audio #1
ID                               : 2
Format                           : AAC
Format/Info                      : Advanced Audio Codec
Format version                   : Version 4
Format profile                   : LC
Format settings, SBR             : Yes
Format settings, PS              : No
Codec ID                         : 40
Duration                         : 2h 35mn
Bit rate mode                    : Variable
Bit rate                         : 231 Kbps
Maximum bit rate                 : 267 Kbps
Channel(s)                       : 6 channels
Channel positions                : Front: L C R, Rear: L R, LFE
Sampling rate                    : 48.0 KHz
Resolution                       : 16 bits
Stream size                      : 257 MiB (10%)
Title                            : English
Language                         : English

Audio #2
ID                               : 3
Format                           : AAC
Format/Info                      : Advanced Audio Codec
Format version                   : Version 4
Format profile                   : LC
Format settings, SBR             : Yes
Format settings, PS              : No
Codec ID                         : 40
Duration                         : 2h 35mn
Bit rate mode                    : Variable
Bit rate                         : 85.1 Kbps
Maximum bit rate                 : 107 Kbps
Channel(s)                       : 2 channels
Channel positions                : L R
Sampling rate                    : 48.0 KHz
Resolution                       : 16 bits
Stream size                      : 94.8 MiB (4%)
Language                         : English

Text #1
ID                               : 4
Format                           : Timed text
Codec ID                         : tx3g
Duration                         : 2h 29mn
Bit rate mode                    : Variable
Bit rate                         : 46 bps
Stream size                      : 51.5 KiB (0%)
Language                         : English

Text #2
ID                               : 5
Format                           : Timed text
Codec ID                         : tx3g
Duration                         : 2h 30mn
Bit rate mode                    : Variable
Bit rate                         : 47 bps
Stream size                      : 52.3 KiB (0%)
Language                         : French

Text #3
ID                               : 6
Format                           : Timed text
Codec ID                         : tx3g
Duration                         : 2h 29mn
Bit rate mode                    : Variable
Bit rate                         : 45 bps
Stream size                      : 49.6 KiB (0%)
Language                         : Spanish
